<svg width="52" height="50" viewBox="0 0 52 50" fill="none" xmlns="http://www.w3.org/2000/svg">
<g id="phone">
<path id="Path 16" d="M27.6052 38.3408L33.8413 32.3445C34.1906 32.0086 34.7401 31.9619 35.1453 32.2336L44.7502 38.6749C45.2707 39.0239 45.3366 39.7405 44.8879 40.172L41.7778 43.1624C41.0538 43.8586 40.0198 44.1596 39.0329 43.8974C35.2978 42.9051 25.6761 39.7744 17.9005 32.2978C10.125 24.8213 6.86904 15.5697 5.837 11.9783C5.56429 11.0293 5.87734 10.0351 6.60139 9.33891L9.71145 6.34848C10.1602 5.91702 10.9054 5.98038 11.2684 6.48085L17.9673 15.7163C18.2499 16.1059 18.2013 16.6343 17.852 16.9702L11.6159 22.9665" stroke="#F2F2F2" stroke-width="5" stroke-linecap="round"/>
</g>
</svg>
